<svg preserveAspectRatio="none" width="100%" height="100%" overflow="visible" style="display: block;" viewBox="0 0 18 18" fill="none" xmlns="http://www.w3.org/2000/svg">
<g id="Frame">
<path id="Vector" d="M16.2862 14.296C17.3105 12.8896 17.9055 11.2166 17.9993 9.47926C18.0213 9.07398 17.54 8.86283 17.1957 9.07798C16.0444 9.79759 14.6831 10.1057 13.3341 9.95209C11.9851 9.79846 10.728 9.19214 9.76794 8.23208C8.80789 7.27202 8.20157 6.0149 8.04794 4.66589C7.89431 3.31688 8.20244 1.95563 8.92204 0.804281C9.13719 0.461045 8.92504 -0.0212876 8.51976 0.000727568C6.78244 0.0946971 5.10952 0.689885 3.70323 1.71434C2.29695 2.7388 1.21751 4.14867 0.595403 5.77352C-0.0267062 7.39837 -0.164851 9.16864 0.197669 10.8703C0.560188 12.572 1.40785 14.1323 2.63819 15.3625C3.86853 16.5927 5.42886 17.4402 7.13058 17.8025C8.8323 18.1649 10.6026 18.0265 12.2273 17.4043C13.8521 16.782 15.2619 15.7024 16.2862 14.296Z" fill="var(--fill-0, white)"/>
</g>
</svg>
